/* XPM */
static char *a6ebb261bdb741048df9f10f2c241ab1bp1EEGzcQsZY3WDo[] = {
/* columns rows colors chars-per-pixel */
"50 50 2 1 ",
"  c black",
". c white",
/* pixels */
"..................................................",
"..................................................",
"..................................................",
"..................................................",
"..................................................",
"..................................................",
"..................................................",
"..................................................",
"..................................................",
".....................        .....................",
"...................            ...................",
"..................              ..................",
".................                .................",
"................                  ................",
"...............                    ...............",
"...............       ......       ...............",
"..............       ........      ...............",
"..............       .........      ..............",
"..............      ..........      ..............",
".............       ..........      ..............",
".............       ..........       .............",
".............      ............      .............",
".............      ............      .............",
".............      ....    ....      .............",
".............      ..       ...      .............",
".............      ..        ..      .............",
".............      .         ..      .............",
".............      .          .      .............",
".............      .          .      .............",
".............      ..        ..      .............",
".............      ..        ..      .............",
".............      ...      ...      .............",
".............      .....  .....      .............",
".............      ............      .............",
".............      ............      .............",
".............       ..........       .............",
"..............      ..........      ..............",
"..............      ..........      ..............",
"..............       ........       ..............",
"...............      ........      ...............",
"...............        ....        ...............",
"................                  ................",
"................                  ................",
".................                .................",
"..................              ..................",
"....................          ....................",
"........................  ........................",
"..................................................",
"..................................................",
".................................................."
};
