/* XPM */
static char *_e8157faddb1450cf90726fcd3459bcdvwybVwhdt28JVzPU[] = {
/* columns rows colors chars-per-pixel */
"50 50 2 1 ",
"  c black",
". c white",
/* pixels */
"..................................................",
"..................................................",
"..................................................",
"..................................................",
"..................................................",
"..................................................",
"..................................................",
"..................................................",
"..................................................",
"........................     .....................",
"......................       .....................",
"....................         .....................",
"..................           .....................",
"................             .....................",
"................             .....................",
"................             .....................",
"................             .....................",
"................     ..      .....................",
"................   ....      .....................",
"................ ......      .....................",
".......................      .....................",
".......................      .....................",
".......................      .....................",
".......................      .....................",
".......................      .....................",
".......................      .....................",
".......................      .....................",
".......................      .....................",
".......................      .....................",
".......................      .....................",
".......................      .....................",
".......................      .....................",
".......................      .....................",
".......................      .....................",
".......................      .....................",
".......................      .....................",
".......................      .....................",
".......................      .....................",
".......................      .....................",
".......................      .....................",
"................                    ..............",
"................                    ..............",
"................                    ..............",
"................                    ..............",
"................                    ..............",
"................                    ..............",
"..................................................",
"..................................................",
"..................................................",
".................................................."
};
