/* XPM */
static char *c8fb020efee34a4fbc1fbc9989c17ccciaZjgrOdA59k4B2T[] = {
/* columns rows colors chars-per-pixel */
"50 50 2 1 ",
"  c black",
". c white",
/* pixels */
"..................................................",
"..................................................",
"..................................................",
"..................................................",
"..................................................",
"..................................................",
"..................................................",
"..................................................",
".....................           ..................",
"...................               ................",
".................                  ...............",
".................                  ...............",
"................                  ................",
"...............       .........   ................",
"...............      .............................",
"..............      ..............................",
"..............      ..............................",
"..............     ...............................",
".............      ...............................",
".............      ...............................",
".............      ...............................",
".............      ...............................",
".............      ...............................",
".............     ................................",
".............     ................................",
".............     ................................",
".............      ...............................",
".............      ...............................",
".............      ...............................",
".............      ...............................",
".............      ...............................",
"..............     ...............................",
"..............      ..............................",
"..............      ..............................",
"...............      ............ ................",
"...............       .........   ................",
"................          .        ...............",
"................                   ...............",
".................                   ..............",
"...................               ................",
"....................            ..................",
".........................  .......................",
"..................................................",
"..................................................",
"..................................................",
"..................................................",
"..................................................",
"..................................................",
"..................................................",
".................................................."
};
