/* XPM */
static char *_4c3e43414894e3ccc0988443555a340yhp7EoFehH9lwGb4[] = {
/* columns rows colors chars-per-pixel */
"50 50 2 1 ",
"  c black",
". c white",
/* pixels */
"..................................................",
"..................................................",
"..................................................",
"..................................................",
"..................................................",
"..................................................",
"....................           ...................",
".................                 ................",
"...............                     ..............",
"..............                       .............",
"............                           ...........",
"...........                             ..........",
"..........                               .........",
"..........                               .........",
".........                                 ........",
"........                                   .......",
"........                                   .......",
".......                                     ......",
".......                                     ......",
".......                                     ......",
"......                                       .....",
"......                                       .....",
"......                                       .....",
"......                                       .....",
"......                                       .....",
"......                                       .....",
"......                                       .....",
"......                                       .....",
"......                                       .....",
"......                                       .....",
"......                                       .....",
".......                                     ......",
".......                                     ......",
".......                                     ......",
"........                                   .......",
"........                                   .......",
".........                                 ........",
"..........                               .........",
"..........                               .........",
"...........                             ..........",
"............                           ...........",
"..............                       .............",
"...............                     ..............",
".................                 ................",
"....................           ...................",
"..................................................",
"..................................................",
"..................................................",
"..................................................",
".................................................."
};
