/* XPM */
static char *ae999b07556f45f5a47ff3c19b3f5603dSzdJ3J8pEFUiLNq[] = {
/* columns rows colors chars-per-pixel */
"50 50 2 1 ",
"  c black",
". c white",
/* pixels */
"..................................................",
"..................................................",
"..................................................",
"..................................................",
"..................................................",
"..................................................",
"..................................................",
"..................................................",
"..................................................",
"...............                    ...............",
"...............                    ...............",
"...............                    ...............",
"...............                    ...............",
"...............                    ...............",
"...............                    ...............",
"...............      .............................",
"...............      .............................",
"...............      .............................",
"...............      .............................",
"...............      .............................",
"...............      .............................",
"...............      .............................",
"...............      .............................",
"...............      .............................",
"...............                    ...............",
"...............                    ...............",
"...............                    ...............",
"...............                    ...............",
"...............                    ...............",
"...............      .............................",
"...............      .............................",
"...............      .............................",
"...............      .............................",
"...............      .............................",
"...............      .............................",
"...............      .............................",
"...............      .............................",
"...............      .............................",
"...............      .............................",
"...............      .............................",
"...............                    ...............",
"...............                    ...............",
"...............                    ...............",
"...............                    ...............",
"...............                    ...............",
"...............                    ...............",
"..................................................",
"..................................................",
"..................................................",
".................................................."
};
