/* XPM */
static char *_4f93daac4d843ecff4a64fbdad13c8elsk0SxmhGOIZlcF9[] = {
/* columns rows colors chars-per-pixel */
"50 50 2 1 ",
"  c black",
". c white",
/* pixels */
"..................................................",
"..................................................",
"..................................................",
"..................................................",
"..................................................",
"..................................................",
"..................................................",
"..................................................",
"..................................................",
"...............          .........................",
"...............                ...................",
"...............                  .................",
"...............                   ................",
"...............                    ...............",
"...............                     ..............",
"...............      ......         ..............",
"...............      ........       ..............",
"...............      .........       .............",
"...............      .........       .............",
"...............      ..........      .............",
"...............      ..........      .............",
"...............      .........       .............",
"...............      .........       .............",
"...............      ........       ..............",
"...............      .......        ..............",
"...............                    ...............",
"...............                    ...............",
"...............                   ................",
"...............                  .................",
"...............                ...................",
"...............           ........................",
"...............      .............................",
"...............      .............................",
"...............      .............................",
"...............      .............................",
"...............      .............................",
"...............      .............................",
"...............      .............................",
"...............      .............................",
"...............      .............................",
"...............      .............................",
"...............      .............................",
"...............      .............................",
"...............      .............................",
"...............      .............................",
"...............      .............................",
"..................................................",
"..................................................",
"..................................................",
".................................................."
};
